<?xml version="1.0" encoding="UTF-8" standalone="no"?>

<svg xmlns="http://www.w3.org/2000/svg" width="512" height="512" xml:space="preserve"><circle fill="#323653" cx="256" cy="256" r="255.931"/><path opacity=".1" d="M377.8 134.533 329.387 80.12l-18.402 33.489L256 65.162v71.87l-71.648 62.649L79.92 182.414l70.134 70.134L65.161 256l56.501 56.501-41.9 16.709 51.771 49.257-10.478 12.477s68.28 71.981 116.558 120.386c113.611 8.261 222.819-60.614 260.902-173.557 10.481-31.084 14.645-62.773 13.197-93.679l-120.77-123.037-13.142 13.476z"/><g fill="#E2DDEE"><path d="M98.367 281.935c.67 2.509-.689 5.163-3.033 5.917-2.345.759-4.789-.664-5.46-3.177-.67-2.51.689-5.162 3.03-5.918 2.346-.757 4.79.665 5.463 3.178z"/><path d="m91.273 272.633 1.941 10.964 3.755 10.377-1.943-10.962z"/><path d="m84.157 286.523 10.224-2.248 9.702-4.188-10.224 2.249zM226.711 32.451c1.007 3.768-1.033 7.744-4.55 8.884-3.521 1.137-7.187-.999-8.192-4.768-1.006-3.77 1.03-7.749 4.546-8.882 3.52-1.136 7.19.999 8.196 4.766z"/><path d="m216.064 18.496 2.915 16.451 5.637 15.574-2.917-16.451z"/><path d="m205.388 39.338 15.338-3.37 14.56-6.286-15.338 3.373z"/><g><path d="M482.397 215.883c1.006 3.768-1.035 7.744-4.552 8.88-3.521 1.137-7.188-.996-8.19-4.766-1.008-3.77 1.028-7.749 4.543-8.88 3.521-1.138 7.194.997 8.199 4.766z"/><path d="m471.748 201.928 2.917 16.451 5.638 15.574-2.92-16.453z"/><path d="m461.073 222.768 15.338-3.372 14.561-6.284-15.338 3.372z"/></g><g><path d="M104.563 418.987c1.651 6.171-1.692 12.69-7.456 14.553-5.763 1.86-11.776-1.635-13.423-7.811-1.647-6.177 1.69-12.693 7.449-14.553 5.768-1.863 11.779 1.633 13.43 7.811z"/><path d="m87.119 396.122 4.774 26.955 9.234 25.513-4.777-26.952z"/><path d="m69.629 430.268 25.13-5.523 23.852-10.298-25.128 5.524z"/></g><g><path d="M271.85 459.405c.63 2.354-.645 4.832-2.838 5.543-2.196.712-4.486-.619-5.115-2.974-.629-2.354.645-4.836 2.839-5.545 2.196-.711 4.487.623 5.114 2.976z"/><path d="m265.202 450.697 1.822 10.268 3.517 9.719-1.818-10.268z"/><path d="m258.542 463.704 9.576-2.106 9.085-3.92-9.573 2.102z"/></g><g><path d="M124.544 158.061c.936 3.509-.96 7.212-4.235 8.271-3.275 1.059-6.692-.929-7.627-4.437-.938-3.511.96-7.215 4.233-8.271 3.276-1.059 6.692.927 7.629 4.437z"/><path d="m114.632 145.07 2.713 15.318 5.246 14.498-2.713-15.318z"/><path d="m104.692 164.471 14.281-3.137 13.557-5.852-14.281 3.14z"/></g></g><path fill="#F15F34" d="M390.943 390.943c-14.463-25.498-25.706-47.315-33.745-67.095 21.351-.075 45.802 2.041 74.883 5.736-23.31-18.287-42.143-34.346-57.17-49.737 19.799-8.407 43.37-15.962 71.928-23.848-28.457-7.858-51.962-15.386-71.718-23.758 15.033-15.31 33.851-31.279 57.116-49.452-29.194 3.647-53.721 5.711-75.125 5.574 8.045-19.835 19.315-41.717 33.831-67.308-25.498 14.463-47.315 25.707-67.094 33.745-.075-21.35 2.041-45.801 5.737-74.882-18.288 23.309-34.348 42.144-49.739 57.17C271.439 117.29 263.886 93.72 256 65.162c-7.858 28.456-15.385 51.961-23.757 71.717-15.31-15.033-31.279-33.852-49.452-57.116 3.647 29.194 5.711 53.721 5.574 75.125-19.835-8.044-41.717-19.314-67.308-33.831 14.463 25.499 25.706 47.315 33.745 67.094-21.35.075-45.801-2.041-74.881-5.737 23.309 18.288 42.144 34.347 57.17 49.739-19.8 8.408-43.37 15.961-71.929 23.848 28.456 7.858 51.961 15.387 71.717 23.758-15.032 15.31-33.851 31.279-57.116 49.452 29.194-3.647 53.721-5.712 75.125-5.575-8.044 19.836-19.315 41.718-33.831 67.309 25.499-14.463 47.316-25.706 67.095-33.745.075 21.351-2.041 45.802-5.737 74.883 18.288-23.31 34.346-42.143 49.738-57.17 8.408 19.799 15.961 43.37 23.847 71.928 7.859-28.456 15.387-51.962 23.757-71.718 15.311 15.034 31.28 33.852 49.454 57.116-3.647-29.193-5.712-53.721-5.575-75.124"/><circle fill="#FEC054" cx="256" cy="256" r="142.391"/><path opacity=".1" d="M356.585 155.215c18.776 23.829 29.981 53.903 29.981 86.595 0 77.333-62.692 140.027-140.026 140.027-52.592 0-98.403-29.001-122.339-71.874 21.264 51.881 72.26 88.428 131.799 88.428 78.641 0 142.391-63.75 142.391-142.391 0-39.371-15.98-75.009-41.806-100.785z"/></svg>